<svg id="logo_espopch_svg" data-name="logo_espoch" xmlns="http://www.w3.org/2000/svg" width="32px" height="32px" viewBox="0 0 64.86 83.49" fill="#ffffff"><defs></defs><path class="cls-1" d="M62.26,100h0a16.85,16.85,0,0,0-7.64-1.77H37.77v4.45H54.69c.06,0,5.15-.15,7.56,2.88h0c2.41-3,7.51-2.88,7.56-2.88H86.53V98.21H69.9A16.9,16.9,0,0,0,62.26,100Z" transform="translate(-29.7 -22.05)"/><path class="cls-1" d="M94.55,79.64V22.05H29.7V79.69a9.75,9.75,0,0,0,2.75,6.67c2.14,2.19,5.26,3.34,9.27,3.45h.14v0h1.87v0h11c.06,0,5.15-.15,7.56,2.88h0c2.41-3,7.51-2.88,7.56-2.88h.07l12.11,0h0c4.31,0,7.63-1.18,9.86-3.49A9.74,9.74,0,0,0,94.55,79.64ZM82.4,85.36H69.9a17.11,17.11,0,0,0-7.64,1.78h0a17.07,17.07,0,0,0-7.64-1.78H41.8c-2.75-.08-4.81-.77-6.11-2.07a5.31,5.31,0,0,1-1.53-3.44V26.5H90.09V79.76a5.45,5.45,0,0,1-1.46,3.5c-1.29,1.34-3.37,2-6.21,2.11Z" transform="translate(-29.7 -22.05)"/><path class="cls-1" d="M77,64.61h-.44a2.14,2.14,0,0,1-1.33-.49h0A1.86,1.86,0,0,0,75,63.9a8.93,8.93,0,0,0-7.15-2,4.53,4.53,0,0,1-1.31,0,8.55,8.55,0,0,1-1.74-1.23c-4.51-4.64-9.25-4.5-12.45-3.56a15.87,15.87,0,0,0-5.63,3.06l-8.14,6.44v5.68l11-8.66.11-.1c.65-.57,6.47-5.46,12,.29a.52.52,0,0,0,.11.1,10.25,10.25,0,0,0,3.68,2.3,7.88,7.88,0,0,0,2.88.08,4.54,4.54,0,0,1,3.91,1.06,6.66,6.66,0,0,0,4.36,1.68l.64,0c1.11,0,2.26-.1,4.47,1.6.76.6,2.19,1.68,3.93,3V68.06l-1.2-.92C80.93,64.43,78.49,64.54,77,64.61Z" transform="translate(-29.7 -22.05)"/><path class="cls-1" d="M83,52.33a21.34,21.34,0,0,0-1.86-4.5l2.6-2.6-8.47-8.48-2.6,2.6a21.64,21.64,0,0,0-4.51-1.86V33.81h-12v3.68a21.79,21.79,0,0,0-4.5,1.86l-2.6-2.6-8.47,8.47,2.6,2.61a21.34,21.34,0,0,0-1.86,4.5H37.67V62.42l3.47-2.75V55.8h3l.29-1.37a18.11,18.11,0,0,1,2.46-5.94l.76-1.17-2.09-2.1,3.56-3.56,2.09,2.09L52.35,43a17.81,17.81,0,0,1,5.94-2.46l1.36-.3v-3h5v3l1.37.3A17.81,17.81,0,0,1,72,43l1.18.75,2.09-2.09,3.56,3.56-2.09,2.1.76,1.17A18.11,18.11,0,0,1,80,54.43l.29,1.37h3v5.51l.14.09c.29.19.58.4.88.64l1.21.92,1.24.94V52.33Z" transform="translate(-29.7 -22.05)"/></svg>
